<svg width="230" height="230" viewBox="0 0 230 230" fill="none" xmlns="http://www.w3.org/2000/svg">
<g clip-path="url(#clip0_7_206)">
<path d="M133.74 122.58L151.46 122.26C151.8 122.253 151.977 122.077 151.99 121.73C152.18 113.15 148.63 105.04 138.57 105.73C131.223 106.237 126.953 109.95 125.76 116.87C123.15 132.01 137.77 138.94 149.8 132.19C150.107 132.017 150.187 131.767 150.04 131.44L148.07 126.96C148.044 126.897 148.004 126.841 147.955 126.794C147.905 126.747 147.846 126.711 147.782 126.687C147.717 126.664 147.648 126.654 147.579 126.658C147.51 126.662 147.442 126.679 147.38 126.71C142.33 129.24 135.28 129.44 133.46 122.96C133.387 122.713 133.48 122.587 133.74 122.58Z" stroke="#808080" stroke-width="2"/>
<path d="M144.66 116.98C143.59 110.47 135.82 110.39 133.57 116.44C133.363 116.993 133.557 117.27 134.15 117.27L144.43 117.25C144.61 117.243 144.687 117.153 144.66 116.98Z" stroke="#808080" stroke-width="2"/>
<path d="M162.31 124.55C159.69 130.25 173.3 131.18 172.06 122.56C172.013 122.247 171.833 122.1 171.52 122.12C169.05 122.24 163.54 121.87 162.31 124.55Z" stroke="#808080" stroke-width="2"/>
<path d="M60.08 3.25846e-07H169.05C181.01 -0.0499997 193.68 1.44 203.93 7.28C217.043 14.74 225.26 26.3733 228.58 42.18C229.24 45.3267 229.713 51.6233 230 61.07V170.05C229.62 178.643 229.217 184.123 228.79 186.49C225.597 203.95 216.437 216.497 201.31 224.13C190.87 229.4 180.02 229.38 168.68 230H60.95C53.83 229.787 47.87 229.337 43.07 228.65C21.13 225.49 4.83 208.13 1.26 186.48C0.68 182.973 0.26 177.29 0 169.43V60.69C0.313333 51.67 0.736667 45.7733 1.27 43C4.49 26.3733 13.07 14.2933 27.01 6.76C36.84 1.45 48.74 0.0400003 60.08 3.25846e-07Z" fill="#00AF87"/>
<path d="M18.04 163V134.36H31.04C34.1067 134.36 36.4133 135.107 37.96 136.6C39.5067 138.093 40.28 140.04 40.28 142.44C40.28 144.787 39.3733 146.653 37.56 148.04C38.8133 148.707 39.7867 149.6 40.48 150.72C41.1733 151.84 41.52 153.213 41.52 154.84C41.52 157.213 40.72 159.173 39.12 160.72C37.5467 162.24 35.2 163 32.08 163H18.04ZM25.64 156.48H31C32.5733 156.48 33.4267 155.6 33.56 153.84C33.56 152.373 32.7067 151.547 31 151.36H25.64V156.48ZM25.64 145.8H29.84C30.56 145.8 31.1467 145.587 31.6 145.16C32.08 144.707 32.32 144.12 32.32 143.4C32.32 142.627 32.1067 142.013 31.68 141.56C31.28 141.107 30.6667 140.88 29.84 140.88H25.64V145.8ZM54.1466 163.48C52.1466 163.48 50.3199 163.04 48.6666 162.16C47.0132 161.253 45.6932 159.973 44.7066 158.32C43.7199 156.667 43.2266 154.707 43.2266 152.44C43.2266 150.173 43.7066 148.213 44.6666 146.56C45.6532 144.907 46.9732 143.64 48.6266 142.76C50.2799 141.853 52.1066 141.4 54.1066 141.4C55.9999 141.4 57.7199 141.827 59.2666 142.68C60.8399 143.533 62.0932 144.773 63.0266 146.4C63.9866 148.027 64.4666 150.013 64.4666 152.36C64.4666 153.053 64.4266 153.813 64.3466 154.64H50.5466C50.6532 155.653 51.0399 156.453 51.7066 157.04C52.3732 157.6 53.1866 157.88 54.1466 157.88C54.9466 157.88 55.6266 157.733 56.1866 157.44C56.7732 157.147 57.1866 156.707 57.4266 156.12L63.8266 158.2C62.9466 160.173 61.6132 161.547 59.8266 162.32C58.0399 163.093 56.1466 163.48 54.1466 163.48ZM50.6266 150.64H57.5466C57.4132 149.6 57.0266 148.8 56.3866 148.24C55.7466 147.68 54.9732 147.4 54.0666 147.4C53.1599 147.4 52.3866 147.693 51.7466 148.28C51.1332 148.84 50.7599 149.627 50.6266 150.64ZM65.9125 141.2V134.36H90.7125V141.2H82.1125V163H74.5125V141.2H65.9125ZM100.513 163.48C98.4861 163.48 96.6461 163.04 94.9928 162.16C93.3661 161.253 92.0595 159.973 91.0728 158.32C90.1128 156.667 89.6328 154.707 89.6328 152.44C89.6328 150.173 90.1128 148.213 91.0728 146.56C92.0595 144.907 93.3661 143.64 94.9928 142.76C96.6461 141.853 98.4861 141.4 100.513 141.4C102.539 141.4 104.366 141.853 105.993 142.76C107.646 143.64 108.953 144.907 109.913 146.56C110.899 148.213 111.393 150.173 111.393 152.44C111.393 154.707 110.899 156.667 109.913 158.32C108.953 159.973 107.646 161.253 105.993 162.16C104.366 163.04 102.539 163.48 100.513 163.48ZM96.7128 152.44C96.7128 153.773 97.0461 154.853 97.7128 155.68C98.4061 156.507 99.3395 156.92 100.513 156.92C101.659 156.92 102.566 156.507 103.233 155.68C103.926 154.853 104.273 153.773 104.273 152.44C104.273 151.107 103.926 150.04 103.233 149.24C102.566 148.413 101.659 148 100.513 148C99.3395 148 98.4061 148.413 97.7128 149.24C97.0461 150.04 96.7128 151.107 96.7128 152.44ZM122.663 163.48C121.143 163.48 119.783 163.187 118.583 162.6C117.383 161.987 116.423 161.04 115.703 159.76C115.009 158.453 114.663 156.747 114.663 154.64V141.88H121.623V154.04C121.623 154.973 121.809 155.72 122.183 156.28C122.556 156.813 123.223 157.08 124.183 157.08C125.116 157.08 125.956 156.72 126.703 156C127.449 155.28 127.823 154.373 127.823 153.28V141.88H134.783V163H128.503V160.64C127.009 162.533 125.063 163.48 122.663 163.48ZM139.825 163V141.88H146.105V143.88C147.305 142.28 148.771 141.48 150.505 141.48C151.385 141.48 152.171 141.627 152.865 141.92L151.385 148.84H149.345C148.625 148.84 148.011 149.08 147.505 149.56C147.025 150.04 146.785 150.707 146.785 151.56V163H139.825ZM155.45 163V141.88H162.41V163H155.45ZM155.45 139.56V133.8H162.45V139.56H155.45ZM175.482 163.48C172.895 163.48 170.735 162.907 169.002 161.76C167.269 160.613 166.309 158.88 166.122 156.56H172.682C173.002 157.6 173.935 158.12 175.482 158.12C177.055 158.12 177.815 157.72 177.762 156.92C177.762 156.573 177.522 156.253 177.042 155.96C176.562 155.667 175.655 155.373 174.322 155.08C171.549 154.467 169.575 153.64 168.402 152.6C167.229 151.56 166.642 150.12 166.642 148.28C166.642 146.2 167.455 144.533 169.082 143.28C170.735 142.027 172.922 141.4 175.642 141.4C178.202 141.4 180.282 142 181.882 143.2C183.482 144.373 184.335 146.067 184.442 148.28H177.842C177.789 147.773 177.562 147.4 177.162 147.16C176.762 146.92 176.255 146.8 175.642 146.8C174.415 146.8 173.815 147.133 173.842 147.8C173.842 148.093 174.015 148.36 174.362 148.6C174.735 148.84 175.535 149.107 176.762 149.4C179.722 150.093 181.815 150.96 183.042 152C184.269 153.013 184.882 154.507 184.882 156.48C184.882 161.12 181.749 163.453 175.482 163.48ZM196.494 163.48C194.627 163.48 193.094 162.907 191.894 161.76C190.694 160.613 190.094 159.133 190.094 157.32V147.36H186.614V141.88H190.094L191.014 136.96H197.014V141.88H201.294V147.36H197.014V156.2C197.014 156.6 197.12 156.947 197.334 157.24C197.574 157.507 197.92 157.64 198.374 157.64H201.294V162.8C199.827 163.253 198.227 163.48 196.494 163.48ZM205.144 163V155.92H212.224V163H205.144Z" fill="white"/>
<g clip-path="url(#clip1_7_206)">
<path d="M88.7816 74.7215C81.3656 74.7215 75.3701 80.717 75.3701 88.1122C75.3701 95.5074 81.3656 101.503 88.7607 101.503C96.1559 101.503 102.151 95.5074 102.151 88.1122C102.172 80.717 96.1768 74.7215 88.7816 74.7215ZM88.7816 97.7008C83.4964 97.7008 79.193 93.4183 79.193 88.1122C79.193 82.8061 83.4755 78.5236 88.7816 78.5236C94.0877 78.5236 98.3494 82.827 98.3494 88.1122C98.3494 93.3974 94.0669 97.7008 88.7816 97.7008Z" fill="white"/>
<path d="M142.261 74.7215C134.866 74.7215 128.87 80.717 128.87 88.1122C128.87 95.5074 134.866 101.503 142.261 101.503C149.656 101.503 155.651 95.5074 155.651 88.1122C155.651 80.717 149.656 74.7215 142.261 74.7215ZM142.261 97.7008C136.975 97.7008 132.672 93.4183 132.672 88.1122C132.672 82.8061 136.955 78.5236 142.261 78.5236C147.567 78.5236 151.828 82.827 151.828 88.1122C151.828 93.3974 147.546 97.7008 142.261 97.7008Z" fill="white"/>
<path d="M161.104 69.1437L168.979 61.3308H153.019C144.078 54.0609 129.225 48.0028 115.458 48.0028C101.671 48.0028 86.9431 54.0609 78.0021 61.3308H62.0001L69.8758 69.1437C65.0083 73.9903 62.0001 80.696 62.0001 88.1121C62.0001 102.902 73.9911 114.893 88.7815 114.893C95.5708 114.893 101.775 112.366 106.496 108.188L115.563 114.852L124.525 108.334L124.42 108.083C129.162 112.303 135.388 114.873 142.24 114.873C157.03 114.873 169.021 102.882 169.021 88.0912C169 80.696 165.971 73.9903 161.104 69.1437ZM138.876 61.5397C126.196 63.1273 116.252 73.5725 115.5 86.5035C114.727 73.5516 104.763 63.0855 92.0403 61.5397C98.4328 56.9438 106.58 54.6877 115.458 54.6877C124.337 54.6877 132.484 56.9438 138.876 61.5397ZM88.7815 108.209C77.6678 108.209 68.685 99.2048 68.685 88.1121C68.685 77.0194 77.6887 68.0156 88.7815 68.0156C99.8742 68.0156 108.878 77.0194 108.878 88.1121C108.857 99.2048 99.8742 108.209 88.7815 108.209ZM142.261 108.209C131.168 108.209 122.164 99.2048 122.164 88.1121C122.164 77.0194 131.168 68.0156 142.261 68.0156C153.353 68.0156 162.357 77.0194 162.357 88.1121C162.336 99.2048 153.353 108.209 142.261 108.209Z" fill="white"/>
</g>
</g>
<defs>
<clipPath id="clip0_7_206">
<rect width="230" height="230" fill="white"/>
</clipPath>
<clipPath id="clip1_7_206">
<rect width="107" height="66.8964" fill="white" transform="translate(62 48)"/>
</clipPath>
</defs>
</svg>
